<?xml version="1.0" encoding="utf-8"?>
<!-- Generator: Adobe Illustrator 24.1.1, SVG Export Plug-In . SVG Version: 6.00 Build 0)  -->
<svg version="1.1" id="Layer_1" xmlns="http://www.w3.org/2000/svg" xmlns:xlink="http://www.w3.org/1999/xlink" x="0px" y="0px"
	 viewBox="0 0 512.04 512.04" style="enable-background:new 0 0 512.04 512.04;" xml:space="preserve">
<style type="text/css">
	.st0{fill:#FFFFFF;}
	.st1{fill:#BF232E;}
</style>
<g>
	<rect x="0" class="st0" width="512.04" height="512.04"/>
	<g>
		<rect x="258.02" y="4" width="250.02" height="250.02"/>
		<rect x="4" y="258.02" width="250.02" height="250.02"/>
	</g>
	<g>
		<rect x="4" y="4" class="st1" width="250.02" height="250.02"/>
		<rect x="258.02" y="258.02" class="st1" width="250.02" height="250.02"/>
	</g>
	<g>
		<polygon points="436.35,293.16 328.35,293.16 328.35,312.5 372.68,312.5 372.68,471.88 392.02,471.88 392.02,312.5 436.35,312.5 
					"/>
		<path d="M88.93,198.91l15.73-10.49c2.45,4.89,10.14,12.23,22.02,11.88s18.17-5.94,19.22-17.83s0-144,0-144h22.37
			c0,0,0,126.17,0,141.55s-10.49,39.84-40.89,39.5S88.93,198.91,88.93,198.91z"/>
	</g>
	<g>
		<path class="st1" d="M173.16,472.12h24.47l-44.27-74.56c0,0,31.22-11.65,31.69-49.4c0.47-37.75-25.86-51.26-49.4-51.96
			c-10.22-0.3-20.67-0.34-29.21-0.29H87.48v0.29c-0.03,0-0.06,0-0.06,0l0.06,0.35v175.34h19.34v-70.95h26.83L173.16,472.12z
			 M106.81,308.88c5.39,0.2,15.65,0.56,23.53,0.59c16.08,0.06,34.3,12.04,33.73,38.91c-0.52,24.76-12.73,36.76-33.97,37.4h-23.29
			V308.88z"/>
		<path class="st1" d="M429.53,185.11c-8.06,16.15-20.11,26.27-35.23,26.27c-31.46,0-46.6-36.88-46.6-82.37s13.28-82.37,46.6-82.37
			c13.77,0,24.99,8.39,32.97,22.07l18.93-6.79c-11.49-20.39-29.12-33.22-51.9-33.22c-45.67,0-70.14,44.91-70.14,100.31
			s24.23,100.31,70.14,100.31c23.67,0,42.04-14.31,53.56-36.73L429.53,185.11z"/>
	</g>
</g>
</svg>
