<svg viewBox="0 0 423.14 381.7" xmlns="http://www.w3.org/2000/svg"><path d="m317.83 100.23v-.64c31.92-1 90.65-5.75 90.65-47.88 0-51.39-69.9-51.71-125.48-51.71h-128.51v2.23c38.95 0 .32 44.37-26.17 74.06l-28.09 31.6v-50.43c0-38 .32-55.23 28.41-55.23v-2.23h-128.64v2.23c34.47 0 34.47 16.6 34.47 55.23v108.54c0 37.35 0 55.23-34.47 55.23v2.23h128.64v-2.23c-28.09 0-28.41-17.24-28.41-55.23v-53.3c28.41-14.37 45.33 43.41 53 63.2 10.55 27.85 38.84 47.56 38.84 47.56h6.3c-7.06-7.31-10.86-18.8-10.86-31.75v-108.17h-21.58v-2.84h6c23.28 0 40-4.82 52-14.76 8.51-10.78 13.34-25.26 13.34-42h2.73v56.76h31.23v2.84h-31.23v98.46c0 11.07.29 30.94 15.9 30.94 7.66 0 14.19-4 20.72-8.8l1.14 1.42a129.71 129.71 0 0 1 -26.09 17.84h69c63.52 0 102.47-23.94 102.47-63.84.03-50.71-71.48-59.01-105.31-59.33zm-25.54-98h8.3c34.48 0 43.73 17.24 43.73 47.57 0 33.83-9.89 49.15-43.09 49.15h-8.94zm21.39 219c-20.43 0-21.39-7-21.39-37.35v-82.38h10.54c42.45 0 50.11 22 50.11 58.1 0 41.82-11.81 61.61-39.26 61.61z" fill="#bf1e2d"/><path d="m12.81 240.38h397.55v141.32h-397.55z" fill="#231f20"/><g fill="#fff"><path d="m62.49 299.29-10.49-15.06-2.7 3.36v11.7h-10.3v-40h10.29v16.44l12.3-16.44h12.72l-15.54 18.71 16.38 21.3z"/><path d="m78.21 299.29v-40h10.32v40z"/><path d="m95.73 299.29v-40h10.32v31h16.08v9z"/><path d="m127.47 299.29v-40h10.32v31h16.08v9z"/><path d="m159.21 299.29v-40h10.32v40z"/><path d="m204 299.29-16.92-23.16v23.16h-10.35v-40h10.62l16.2 22v-22h10.38v40z"/><path d="m219.09 279.31c0-12.72 9.72-20.7 21.66-20.7 8.94 0 14.34 4.74 17.1 9.72l-8.64 4.5a9.93 9.93 0 0 0 -8.46-5.1c-6.54 0-11.16 5-11.16 11.58s4.62 11.58 11.16 11.58a12.68 12.68 0 0 0 7.38-2.4v-3.12h-9v-9.06h19.32v15.9a23.12 23.12 0 0 1 -17.7 7.8c-11.94-.01-21.66-8.01-21.66-20.7z"/><path d="m289.8 299.29v-31h-11.22v-9h32.7v9h-11.16v31z"/><path d="m343.14 299.29v-16.08h-16.62v16.08h-10.32v-40h10.32v14.94h16.62v-14.96h10.32v40z"/><path d="m360.66 299.29v-40h29.34v9h-19v6.24h18.6v9h-18.6v6.78h19v9z"/><path d="m39 359.29v-40h22.65c7.92 0 11.7 5.16 11.7 10.2s-3.06 8.34-6.84 9.18c4.26.66 7.62 4.74 7.62 9.78 0 5.82-3.9 10.86-11.76 10.86zm23.88-28a3.28 3.28 0 0 0 -3.54-3.3h-10v6.66h10a3.29 3.29 0 0 0 3.51-3.38zm.75 15.71c0-2-1.44-3.6-4-3.6h-10.34v7.2h10.38c2.46-.01 3.96-1.45 3.96-3.6z"/><path d="m99.57 343.09v-23.82h10.5v23.46c0 4.74 2.82 8.16 8.46 8.16s8.4-3.42 8.4-8.16v-23.46h10.44v23.73c0 10-6.06 17-18.84 17s-18.96-7.07-18.96-16.91z"/><path d="m164.37 359.29v-40h16.8c12.6 0 21.66 7.56 21.66 20s-9.06 20-21.6 20zm27.9-20c0-6.18-3.72-11-11-11h-6.54v22h6.48c6.98 0 11.06-5.1 11.06-11.04z"/><path d="m227.79 359.29v-40h16.8c12.6 0 21.66 7.56 21.66 20s-9.06 20-21.6 20zm27.9-20c0-6.18-3.72-11-11-11h-6.54v22h6.48c6.98 0 11.06-5.1 11.06-11.04z"/><path d="m318.15 359.29v-16.08h-16.62v16.08h-10.32v-40h10.32v14.94h16.62v-14.96h10.32v40z"/><path d="m381.36 359.29-2-5.76h-15.76l-2 5.76h-11.7l15.06-40h13l15.12 40zm-9.9-29.82-5.1 15.06h10.2z"/></g></svg>