<svg enable-background="new 3.822 5.617 1228.31 337.885" height="337.885" viewBox="3.822 5.617 1228.31 337.885" width="1228.31" xmlns="http://www.w3.org/2000/svg"><g fill="#191919"><path d="m125.516 131.216v-125.6h-6.802c-63.354.001-114.892 51.548-114.892 114.906 0 41.014 21.614 77.057 54.038 97.39v125.593h6.804c63.358 0 114.9-51.54 114.9-114.895 0-41.016-21.618-77.06-54.048-97.392zm-108.086-10.696c0-53.566 41.79-97.552 94.48-101.065v104.462c-14.423-6.533-30.408-10.202-47.246-10.202h-6.804v87.66c-24.52-18.503-40.43-47.84-40.43-80.854zm94.48 18.632v82.427c-14.55-.973-28.21-5.116-40.44-11.605v-82.423c14.547.97 28.206 5.115 40.44 11.6zm-40.44 190.513v-104.455c14.42 6.536 30.406 10.204 47.244 10.204h6.802v-87.664c24.523 18.502 40.44 47.84 40.44 80.857 0 53.563-41.795 97.546-94.487 101.058z"/><path d="m331.078 125.838-12.9 10.47c-3.74-8.226-8.2-14.052-13.37-17.482-5.175-3.427-12.248-5.142-21.223-5.142-9.475 0-16.922 1.963-22.345 5.89s-8.134 8.946-8.134 15.052c0 3.99 1.058 7.292 3.18 9.91 2.117 2.618 5.638 4.894 10.563 6.825 4.922 1.935 11.747 3.647 20.474 5.143 16.33 2.744 27.89 6.857 34.686 12.34 6.792 5.488 10.19 13.09 10.19 22.812 0 6.984-1.964 13.12-5.89 18.418-3.927 5.3-9.508 9.414-16.735 12.342-7.23 2.928-15.584 4.395-25.056 4.395-12.467 0-23.093-2.432-31.88-7.293s-15.49-11.342-20.102-19.445l12.904-10.473c3.366 7.356 8.32 13.06 14.865 17.108 6.544 4.053 14.74 6.076 24.588 6.076 9.723 0 17.45-1.775 23.186-5.328 5.73-3.553 8.6-8.568 8.6-15.053 0-5.482-2.494-9.846-7.478-13.088-4.987-3.24-13.837-5.983-26.552-8.227-16.454-2.866-28.11-6.98-34.965-12.34-6.857-5.36-10.284-12.84-10.284-22.44 0-6.605 1.87-12.714 5.61-18.323 3.74-5.61 9.1-10.065 16.08-13.37 6.98-3.3 15.082-4.954 24.31-4.954 22.062 0 37.955 8.727 47.678 26.178zm70.305 50.86v48.24h-14.96v-48.24l-44.126-75.167h17.763l33.844 59.835 33.844-59.834h17.764l-44.13 75.168zm163.047 48.24h-18.512l-51.606-82.646-13.09-24.308h-.186l.747 19.82v87.133h-14.21v-123.407h18.51l51.42 82.273 13.277 24.682h.187l-.748-19.82v-87.135h14.21v123.408zm125.838-107.328c10.968 10.723 16.455 25.93 16.455 45.625 0 19.698-5.487 34.905-16.455 45.624-10.97 10.722-26.177 16.08-45.623 16.08h-39.827v-123.409h39.827c19.446 0 34.652 5.362 45.623 16.08zm-11.125 80.683c7.914-8.414 11.873-20.1 11.873-35.06 0-14.957-3.96-26.644-11.873-35.058-7.918-8.414-18.918-12.62-33.003-12.62h-26.364v95.36h26.364c14.085 0 25.085-4.207 33.003-12.622zm75.445 26.645h-14.958v-123.408h14.958zm120.789-7.012c-8.853 5.922-19.072 8.883-30.665 8.883-11.594 0-21.69-2.587-30.29-7.76-8.603-5.173-15.24-12.53-19.915-22.065-4.675-9.537-7.012-20.785-7.012-33.75 0-12.837 2.337-24.056 7.012-33.657 4.675-9.597 11.312-16.983 19.914-22.157 8.602-5.17 18.573-7.76 29.918-7.76 11.84 0 21.783 2.432 29.823 7.293 8.04 4.86 14.054 12.03 18.045 21.503l-14.77 6.918c-2.744-7.228-6.732-12.65-11.968-16.267-5.235-3.614-11.906-5.423-20.008-5.423-8.48 0-15.894 1.963-22.25 5.89s-11.284 9.63-14.772 17.11c-3.492 7.478-5.236 16.33-5.236 26.55 0 15.458 3.708 27.58 11.126 36.368 7.415 8.79 17.544 13.182 30.385 13.182 8.35 0 15.58-2.117 21.69-6.355 6.105-4.237 10.47-10.474 13.088-18.7l14.96 5.61c-3.867 10.47-10.224 18.668-19.073 24.586zm117.235-27.206h-55.907l-13.09 34.218h-15.705l48.054-123.408h17.763l47.868 123.408h-15.895l-13.088-34.217zm-5.422-14.02-16.643-43.754-5.796-17.202h-.373l-5.423 16.64-16.828 44.316zm129.39-61.146h-43.006v109.384h-14.96v-109.384h-43.005v-14.024h100.97v14.024zm115.552 95.361v14.023h-89.377v-123.408h86.572v14.024h-71.614v39.827h55.72v14.024h-55.72v41.51h74.42z"/></g></svg>