<?xml version="1.0" encoding="UTF-8"?>
<svg width="150px" height="150px" viewBox="0 0 150 150" version="1.1" xmlns="http://www.w3.org/2000/svg" xmlns:xlink="http://www.w3.org/1999/xlink">
    <title>TOJ_SquareBadge_Black</title>
    <defs>
        <polygon id="path-1" points="0 0 150 0 150 150 0 150"></polygon>
    </defs>
    <g id="mockups" stroke="none" stroke-width="1" fill="none" fill-rule="evenodd">
        <g id="Styles" transform="translate(-1348.000000, -192.000000)">
            <g id="logos" transform="translate(1348.000000, 96.000000)">
                <g id="TOJ_SquareBadge_Black" transform="translate(0.000000, 96.000000)">
                    <path d="M44.2995308,95.7236842 C43.211185,95.7236842 42.4928597,96.4075568 42.1641417,97.7565571 L38.5565477,112.890003 C38.4162465,113.447295 38.4892713,113.96478 38.7617835,114.346207 C39.0519665,114.752487 39.5335468,114.967105 40.1545767,114.967105 C41.2216325,114.967105 41.9112163,114.277546 42.2631403,112.859253 L45.8385864,97.9082012 C45.9614298,97.3416421 45.8534894,96.7763468 45.5422293,96.3559557 C45.244169,95.9540989 44.7917561,95.7236842 44.2995308,95.7236842" id="Fill-1" fill="#1A1919"></path>
                    <path d="M44.57904,82.7605513 C44.9320768,84.1791684 45.6218043,84.8684211 46.6879205,84.8684211 C47.3092909,84.8684211 47.7905504,84.6540009 48.0807497,84.2476317 C48.3531167,83.8662536 48.4259318,83.3489991 48.2851841,82.7910027 L44.678179,67.6583163 C44.3493431,66.3085824 43.6311689,65.625 42.5433992,65.625 C42.0515252,65.625 41.5980756,65.8553809 41.3004462,66.25776 C40.989018,66.6781999 40.8807505,67.2429166 41.0032414,67.8072133 L44.57904,82.7605513" id="Fill-2" fill="#1A1919"></path>
                    <g id="Group-6">
                        <mask id="mask-2" fill="white">
                            <use xlink:href="#path-1"></use>
                        </mask>
                        <g id="Clip-4"></g>
                        <path d="M78.9314583,96.5505459 C78.545625,96.0088341 77.923125,95.7342279 77.0808333,95.7342279 L76.241875,95.7342279 L74.3958333,103.669056 L75.2364583,103.669056 C76.661875,103.669056 78.39125,103.282774 79.12,100.266064 C79.5333333,98.5565464 79.4695833,97.3068589 78.9314583,96.5505459" id="Fill-3" fill="#1A1919" mask="url(#mask-2)"></path>
                        <path d="M127.56,118.326736 L117.327917,118.326736 L123.546042,92.0620468 L128.409583,92.0620468 L123.134792,114.325985 L128.481042,114.325985 L127.56,118.326736 Z M114.867292,118.309859 L109.917292,118.309859 L110.483958,112.874198 L106.675417,112.874198 L104.634583,118.320068 L99.6970833,118.320068 L110.177708,92.0697558 L116.850417,92.0697558 L114.867292,118.309859 Z M92.6891667,118.315068 L91.3772917,102.922327 L91.2270833,102.909409 L87.5491667,118.312151 L82.709375,118.312151 L88.9320833,92.0289191 L93.635,92.0289191 L94.9827083,107.404784 L95.1329167,107.417701 L98.785,92.0574631 L103.62375,92.0574631 L97.40875,118.315068 L92.6891667,118.315068 Z M80.3279167,118.312151 L75.573125,118.312151 L75.0245833,107.058922 L73.5775,107.058922 L70.876875,118.324444 L66.0372917,118.324444 L72.255625,92.06038 L77.3947917,92.06038 C79.981875,92.06038 81.9552083,92.9131594 83.1020833,94.5255855 C84.1627083,96.0167514 84.466875,98.1254688 83.9360417,100.311693 C83.1739583,103.453413 81.6227083,105.523377 79.3252083,106.464289 L79.2702083,106.486791 L80.3279167,118.312151 Z M56.205625,118.678848 C53.4597917,118.678848 52.035625,117.495833 51.324375,116.50325 C50.45,115.284399 50.16625,113.660722 50.5454167,112.049337 L55.2897917,92.06038 L60.13625,92.06038 L55.2229167,112.619385 C55.0758333,113.211101 55.1441667,113.749479 55.4166667,114.134511 C55.6797917,114.506834 56.1108333,114.703309 56.6629167,114.703309 C57.8179167,114.703309 58.5047917,114.0993 58.82375,112.801275 L63.7779167,92.06038 L68.6010417,92.06038 L63.770625,112.316026 C62.6797917,116.656596 60.275625,118.678848 56.205625,118.678848 Z M39.7679167,118.678848 C37.541875,118.678848 35.839375,117.941703 34.8454167,116.547629 C33.8758293,115.188349 33.6229167,113.267147 34.1341667,111.138845 L37.284375,97.8250271 C38.149375,93.9826236 41.0295833,91.6893074 44.989375,91.6893074 C46.913125,91.6893074 48.6627083,92.5106259 49.67,93.8861572 C50.5408333,95.0745895 50.806875,96.6051338 50.4402083,98.3123594 L47.148125,112.280815 C46.05125,116.645345 43.7058333,118.678848 39.7679167,118.678848 Z M24.1347917,118.678848 C20.81625,118.678848 19.2754167,116.262397 19.0427083,115.86153 L21.784375,113.170681 C22.1991667,113.846571 22.7202083,114.451829 23.6489583,114.451829 C24.3195833,114.451829 25.18625,114.172223 25.50625,112.838153 C26.19875,109.945829 29.3566667,96.623677 30.435625,92.06038 L35.3110417,92.06038 L30.2341667,113.355905 C29.3370833,116.937245 27.341875,118.678848 24.1347917,118.678848 Z M37.3102083,63.6771814 C38.3208333,62.2972748 40.0760417,61.4736645 42.005,61.4736645 C45.9760417,61.4736645 48.8645833,63.7738562 49.7327083,67.6262605 L52.8922917,80.9798733 C53.405,83.1150513 53.1513384,85.0418785 52.1789583,86.4051171 C51.1814583,87.8029419 49.474375,88.5423785 47.241875,88.5423785 C43.2920833,88.5423785 40.9395833,86.5026252 39.839375,82.1235103 L36.5375,68.1142179 C36.1702083,66.4040753 36.4375,64.8691558 37.3102083,63.6771814 Z M62.855,61.8536961 L63.7925,65.8354863 L59.93625,65.8354863 L65.2302083,88.1892241 L60.3977083,88.1892241 L55.0960417,65.8438203 L51.243125,65.8438203 L50.28125,61.8536961 L62.855,61.8536961 Z M55.4264583,35.6775565 L56.3697917,31.6803484 L68.9283333,31.6790983 L68.0245833,35.6775565 L64.1602083,35.6775565 L58.839375,58.0023335 L53.985,58.0023335 L59.3008333,35.6771398 L55.4264583,35.6775565 Z M76.0704167,31.6813901 L73.4422917,42.715643 L77.326875,42.7152263 L79.9333333,31.6807651 L84.76625,31.6803484 L78.5202083,58.0033753 L73.698125,58.0050421 L76.3558333,46.7136845 L72.4622917,46.7126427 L69.7891667,58.0029586 L64.9697917,58.0040003 L71.194375,31.6807651 L76.0704167,31.6813901 Z M99.1635417,31.6803484 L98.189375,35.6771398 L92.3583333,35.6788066 L90.7147917,42.7146012 L95.3552083,42.716268 L94.4016667,46.7130594 L89.7208333,46.7130594 L88.0039583,53.995958 L93.8179167,53.995958 L92.8835417,58.0033753 L82.2297917,58.0017085 L88.449375,31.6813901 L99.1635417,31.6803484 Z M82.4964583,61.8486957 L93.1916667,61.8486957 L94.1239583,65.8409034 L88.3016667,65.8409034 L89.9783333,72.8806567 L94.6247917,72.8806567 L95.5960417,76.8780732 L90.9172917,76.8780732 L92.6570833,84.1761813 L98.4772917,84.1761813 L99.4220833,88.1735978 L88.7560417,88.1735978 L82.4964583,61.8486957 Z M76.2004167,88.1735978 L71.3675,88.1735978 L65.1089583,61.8536961 L69.9772917,61.8536961 L72.5902083,72.8806567 L76.440625,72.8806567 L73.840625,61.8536961 L78.7104167,61.8536961 L84.9329167,88.1729727 L80.0627083,88.1729727 L77.37875,76.8780732 L73.5297917,76.8780732 L76.2004167,88.1735978 Z M111.679375,68.5038337 C112.375833,71.5680473 111.281458,74.2399367 109.84,75.2960663 L109.781042,75.3391949 L116.632917,88.1735978 L111.704583,88.1735978 L106.041875,76.8780732 L104.557083,76.8780732 L107.254375,88.1735978 L102.421042,88.1735978 C102.157917,87.0670473 98.4364583,71.4338695 96.1579167,61.844112 L101.986458,61.8486957 C107.567292,61.8486957 110.647083,63.9636636 111.679375,68.5038337 Z M0,150.012501 L150,150.012501 L150,0 L0,0 L0,150.012501 Z" id="Fill-5" fill="#1A1919" mask="url(#mask-2)"></path>
                    </g>
                    <path d="M103.562733,73.5197368 L104.539475,73.5184962 C105.408699,73.5184962 106.09922,73.2044105 106.536684,72.6087023 C107.116941,71.818629 107.228261,70.5767602 106.858603,69.017084 C106.317213,66.7343283 105.024255,65.625 102.905798,65.625 L101.644737,65.625 L103.562733,73.5197368" id="Fill-7" fill="#1A1919"></path>
                    <polyline id="Fill-8" fill="#1A1919" points="110.765537 109.046053 112.006579 98.2316921 111.863842 98.1907895 108.059211 109.046053 110.765537 109.046053"></polyline>
                </g>
            </g>
        </g>
    </g>
</svg>