<svg height="150" viewBox="0 0 150 150" width="150" xmlns="http://www.w3.org/2000/svg" xmlns:xlink="http://www.w3.org/1999/xlink"><mask id="a" fill="#fff"><path d="m0 0h150v150h-150z" fill="#fff" fill-rule="evenodd"/></mask><g fill="#1a1919" fill-rule="evenodd"><path d="m44.2995308 95.7236842c-1.0883458 0-1.8066711.6838726-2.1353891 2.0328729l-3.607594 15.1334459c-.1403012.557292-.0672764 1.074777.2052358 1.456204.290183.40628.7717633.620898 1.3927932.620898 1.0670558 0 1.7566396-.689559 2.1085636-2.107852l3.5754461-14.9510518c.1228434-.5665591.014903-1.1318544-.2963571-1.5522455-.2980603-.4018568-.7504732-.6322715-1.2426985-.6322715"/><path d="m44.57904 82.7605513c.3530368 1.4186171 1.0427643 2.1078698 2.1088805 2.1078698.6213704 0 1.1026299-.2144202 1.3928292-.6207894.272367-.3813781.3451821-.8986326.2044344-1.456629l-3.6070051-15.1326864c-.3288359-1.3497339-1.0470101-2.0333163-2.1347798-2.0333163-.491874 0-.9453236.2303809-1.242953.63276-.3114282.4204399-.4196957.9851566-.2972048 1.5494533z"/><path d="m78.9314583 96.5505459c-.3858333-.5417118-1.0083333-.816318-1.850625-.816318h-.8389583l-1.8460417 7.9348281h.840625c1.4254167 0 3.1547917-.386282 3.8835417-3.402992.4133333-1.7095176.3495833-2.9592051-.1885417-3.7155181" mask="url(#a)"/><path d="m127.56 118.326736h-10.232083l6.218125-26.2646892h4.863541l-5.274791 22.2639382h5.34625zm-12.692708-.016877h-4.95l.566666-5.435661h-3.808541l-2.040834 5.44587h-4.9374997l10.4806247-26.2503122h6.672709zm-22.1781253.005209-1.311875-15.392741-.1502084-.012918-3.6779166 15.402742h-4.8397917l6.2227083-26.2832319h4.7029167l1.3477083 15.3758649.1502084.012917 3.6520833-15.3602379h4.83875l-6.215 26.2576049zm-12.36125-.002917h-4.7547917l-.5485417-11.253229h-1.4470833l-2.700625 11.265522h-4.8395833l6.2183333-26.264064h5.1391667c2.5870833 0 4.5604166.8527794 5.7072916 2.4652055 1.060625 1.4911659 1.3647917 3.5998833.8339584 5.7861075-.7620834 3.14172-2.3133334 5.211684-4.6108334 6.152596l-.055.022502zm-24.1222917.366697c-2.7458333 0-4.17-1.183015-4.88125-2.175598-.874375-1.218851-1.158125-2.842528-.7789583-4.453913l4.744375-19.988957h4.8464583l-4.9133333 20.559005c-.1470834.591716-.07875 1.130094.19375 1.515126.263125.372323.6941666.568798 1.24625.568798 1.155 0 1.841875-.604009 2.1608333-1.902034l4.9541667-20.740895h4.823125l-4.8304167 20.255646c-1.0908333 4.34057-3.495 6.362822-7.565 6.362822zm-16.4377083 0c-2.2260417 0-3.9285417-.737145-4.9225-2.131219-.9695874-1.35928-1.2225-3.280482-.71125-5.408784l3.1502083-13.3138179c.865-3.8424035 3.7452083-6.1357197 7.705-6.1357197 1.92375 0 3.6733333.8213185 4.680625 2.1968498.8708333 1.1884323 1.136875 2.7189766.7702083 4.4262022l-3.2920833 13.9684556c-1.096875 4.36453-3.4422917 6.398033-7.3802083 6.398033zm-15.633125 0c-3.3185417 0-4.859375-2.416451-5.0920834-2.817318l2.7416667-2.690849c.4147917.67589.9358333 1.281148 1.8645833 1.281148.670625 0 1.5372917-.279606 1.8572917-1.613676.6925-2.892324 3.8504167-16.214476 4.929375-20.777773h4.8754167l-5.076875 21.295525c-.8970834 3.58134-2.8922917 5.322943-6.099375 5.322943zm13.1754166-55.0016666c1.010625-1.3799066 2.7658334-2.2035169 4.6947917-2.2035169 3.9710417 0 6.8595833 2.3001917 7.7277083 6.152596l3.1595834 13.3536128c.5127083 2.135178.2590467 4.0620052-.7133334 5.4252438-.9975 1.3978248-2.7045833 2.1372614-4.9370833 2.1372614-3.9497917 0-6.3022917-2.0397533-7.4025-6.4188682l-3.301875-14.0092924c-.3672917-1.7101426-.1-3.2450621.7727083-4.4370365zm25.5447917-1.8234853.9375 3.9817902h-3.85625l5.2939583 22.3537378h-4.8325l-5.3016666-22.3454038h-3.8529167l-.961875-3.9901242zm-7.4285417-26.1761396.9433334-3.9972081 12.5585416-.0012501-.90375 3.9984582h-3.864375l-5.3208333 22.324777h-4.854375l5.3158333-22.3251937zm20.6439584-3.9961664-2.628125 11.0342529 3.8845833-.0004167 2.6064583-11.0344612 4.8329167-.0004167-6.2460417 26.3230269-4.8220833.0016668 2.6577083-11.2913576-3.8935416-.0010418-2.673125 11.2903159-4.819375.0010417 6.2245833-26.3232352zm23.093125-.0010417-.9741667 3.9967914-5.8310417.0016668-1.6435416 7.0357946 4.6404166.0016668-.9535416 3.9967914h-4.6808334l-1.716875 7.2828986h5.8139584l-.934375 4.0074173-10.65375-.0016668 6.2195833-26.3203184zm-16.6670834 30.1683473h10.6952084l.9322916 3.9922077h-5.8222916l1.6766666 7.0397533h4.6464584l.97125 3.9974165h-4.67875l1.7397916 7.2981081h5.8202084l.9447916 3.9974165h-10.6660416zm-6.2960416 26.3249021h-4.8329167l-6.2585417-26.3199017h4.8683334l2.6129166 11.0269606h3.8504167l-2.6-11.0269606h4.8697917l6.2225 26.3192766h-4.8702084l-2.6839583-11.2948995h-3.8489583zm35.4789583-19.6697641c.696458 3.0642136-.397917 5.736103-1.839375 6.7922326l-.058958.0431286 6.851875 12.8344029h-4.928334l-5.662708-11.2955246h-1.484792l2.697292 11.2955246h-4.833333c-.263125-1.1065505-3.9845837-16.7397283-6.2631253-26.3294858l5.8285413.0045837c5.580834 0 8.660625 2.1149679 9.692917 6.655138zm-111.679375 81.5086673h150v-150.012501h-150z" mask="url(#a)"/><path d="m103.562733 73.5197368.976742-.0012406c.869224 0 1.559745-.3140857 1.997209-.9097939.580257-.7900733.691577-2.0319421.321919-3.5916183-.54139-2.2827557-1.834348-3.392084-3.952805-3.392084h-1.261061z"/><path d="m110.766 109.046 1.241-10.814-.143-.041-3.805 10.855z"/></g></svg>