<svg height="800" viewBox="0 0 512 512" width="800" xmlns="http://www.w3.org/2000/svg"><path d="m512 255.964c0 141.117-114.846 255.964-256.037 255.964-46.452 0-90.116-12.475-127.688-34.197-38.967-22.529-71.549-55.111-94.078-94.078-21.722-37.574-34.197-81.237-34.197-127.689 0-141.191 114.845-255.964 255.963-255.964 59.148 0 113.673 20.107 157.042 53.864 16.805 13.136 31.995 28.253 45.058 45.058 33.83 43.37 53.937 97.894 53.937 157.042z" fill="#eeb248"/><path d="m255.993 472.906c-119.622 0-216.945-97.327-216.945-216.956s97.323-216.956 216.945-216.956c119.636 0 216.956 97.327 216.956 216.956-.001 119.629-97.32 216.956-216.956 216.956z" fill="#f8dab2"/><path d="m457.197 255.95c0 111.115-90.075 201.193-201.204 201.193-111.109 0-201.183-90.078-201.183-201.193s90.074-201.194 201.183-201.194c111.129 0 201.204 90.078 201.204 201.194z" fill="#fff"/><g fill="#f1b674"><path d="m151.492 369.409c-3.776 3.776-5.661 9.04-5.145 14.357.509 5.314 3.504 9.03 7.804 13.104 0 0 13.867 14.533 34.005 22.875s40.218 7.865 40.218 7.865c5.561.011 10.663-.344 14.784-3.74 4.128-3.397 6.514-8.453 6.514-13.796l-.007-128.053c0-1.81-1.082-3.437-2.752-4.128-1.67-.688-3.591-.308-4.866.967z"/><path d="m360.508 142.488c3.776-3.776 5.661-9.036 5.16-14.354-.523-5.314-3.511-9.03-7.819-13.104 0 0-13.859-14.537-33.997-22.875-20.137-8.345-40.225-7.864-40.225-7.864-5.561-.011-10.663.343-14.785 3.74-4.121 3.397-6.507 8.453-6.507 13.795v128.053c0 1.806 1.09 3.437 2.759 4.128 1.663.688 3.583.308 4.866-.967z"/><path d="m101.875 262.281c-5.346 0-10.398 2.383-13.792 6.508-3.401 4.124-3.905 8.865-3.748 14.795 0 0-.48 20.076 7.862 40.215 8.345 20.134 22.889 33.997 22.889 33.997 3.924 3.938 7.776 7.295 13.097 7.811 5.31.516 10.581-1.372 14.35-5.149l90.562-90.552c1.276-1.279 1.656-3.196.961-4.87-.688-1.666-2.314-2.756-4.128-2.756h-128.053z"/><path d="m410.128 249.619c5.339 0 10.405-2.39 13.788-6.508 3.397-4.132 3.913-8.865 3.748-14.795 0 0 .48-20.076-7.862-40.214-8.349-20.137-22.882-33.994-22.882-33.994-3.92-3.941-7.783-7.303-13.108-7.815-5.31-.516-10.578 1.372-14.361 5.149l-90.541 90.551c-1.275 1.272-1.663 3.196-.967 4.87.688 1.666 2.329 2.756 4.128 2.756z"/><path d="m142.534 151.442c-3.769-3.78-9.04-5.665-14.35-5.149-5.321.512-9.026 3.508-13.097 7.811 0 0-14.544 13.86-22.889 33.995-8.342 20.141-7.862 40.217-7.862 40.217 0 5.565.347 10.663 3.748 14.795 3.393 4.118 8.446 6.508 13.792 6.508h128.053c1.813 0 3.44-1.09 4.128-2.759.695-1.67.316-3.594-.967-4.866z"/><path d="m369.451 360.458c3.784 3.773 9.051 5.664 14.361 5.149 5.325-.516 9.037-3.508 13.108-7.815 0 0 14.533-13.86 22.882-33.997 8.342-20.134 7.862-40.211 7.862-40.211.007-5.565-.351-10.671-3.748-14.795-3.383-4.125-8.449-6.511-13.788-6.511l-128.057.004c-1.799 0-3.433 1.09-4.128 2.756-.696 1.67-.316 3.591.967 4.87z"/><path d="m249.665 101.822c.007-5.339-2.38-10.395-6.507-13.796-4.121-3.397-8.85-3.902-14.784-3.74 0 0-20.08-.481-40.218 7.858-20.137 8.345-34.005 22.886-34.005 22.886-3.934 3.924-7.295 7.783-7.804 13.101-.517 5.321 1.369 10.581 5.145 14.358l90.555 90.544c1.275 1.283 3.196 1.659 4.866.971 1.669-.688 2.752-2.322 2.752-4.124z"/><path d="m262.335 410.074c0 5.342 2.386 10.399 6.507 13.796 4.121 3.393 8.865 3.906 14.785 3.74 0 0 20.088.477 40.225-7.865 20.138-8.342 33.997-22.875 33.997-22.875 3.942-3.931 7.296-7.79 7.819-13.108.501-5.314-1.383-10.578-5.16-14.354l-90.548-90.552c-1.283-1.272-3.203-1.659-4.866-.967-1.669.691-2.759 2.318-2.759 4.128z"/></g><path d="m512 255.964c0 141.117-114.846 255.964-256.037 255.964v-511.928c59.148 0 113.673 20.107 157.042 53.864 16.805 13.136 31.995 28.253 45.058 45.058 33.83 43.37 53.937 97.894 53.937 157.042z" fill="#231815" opacity=".06"/></svg>